<svg id="Layer_1" data-name="Layer 1" xmlns="http://www.w3.org/2000/svg" viewBox="0 0 1261.74 356.76"><defs><style>.cls-1,.cls-3{fill:none;}.cls-2,.cls-4{fill:#fff;}.cls-3,.cls-4{stroke:#fff;stroke-miterlimit:10;}</style></defs><title>logo-white-horizontal</title><path class="cls-1" d="M170.07,347.16l1.06-18.5c27.69,1.59,55.28-22.06,75-44A81.87,81.87,0,1,0,159.76,348l.09-.5a68,68,0,0,0,17.32.06c1.14-.15,2.25-.41,3.38-.61-2.21.22-4.42.36-6.65.36C172.62,347.27,171.35,347.23,170.07,347.16Z" transform="translate(-36.32 -43.67)"/><path class="cls-1" d="M361.1,269a81.9,81.9,0,1,0,83-84.49c-22.83,1.6-41,9-57.77,22.75a82.77,82.77,0,0,0-14.54,18.61l13.72,11C385.36,237,376.92,247.6,361.1,269Z" transform="translate(-36.32 -43.67)"/><path class="cls-2" d="M444.52,136.28v-.14l-1.46.11h-.11a129.47,129.47,0,0,0-84.89,31.64,198.33,198.33,0,0,0-24.95,23.63c-20.61,27.79-30.87,47.21-49.75,75.27-23.22,34.5-60.12,76-102.8,80.13-1.13.2-2.24.46-3.38.61a68,68,0,0,1-17.32-.06l-.09.5a82.21,82.21,0,1,1,86.41-63.28c10.64-11.8,19-23.11,23.9-29.7,6.49-8.77,13.37-18.91,19.95-29-17-52-66-89.7-123.61-89.7-71.73,0-130.09,58.36-130.09,130.1S94.68,396.43,166.41,396.43a131.67,131.67,0,0,0,21.43-1.79c27.58-4,66.58-17.77,102.87-59.19C338.24,281.38,343,263.69,371.9,223.9l1.55-1.91c3.94-6.88,7.2-9.33,12.89-14.78,16.78-13.73,34.94-21.15,57.77-22.75a81.9,81.9,0,1,1-83,84.49c-9.6,12.95-21.92,29.87-36.75,50.82a130.25,130.25,0,0,0,118.59,76.66c71.73,0,130.09-58.36,130.09-130.09C573,195.13,515.52,137.14,444.52,136.28Z" transform="translate(-36.32 -43.67)"/><path class="cls-2" d="M510.46,83.88s-76-96.37-153.82,9.27C353.34,97.62,421.51,41.25,510.46,83.88Z" transform="translate(-36.32 -43.67)"/><path class="cls-2" d="M238.68,137c-81.23-103-154-4.27-154-4.27C172.17,87.21,242.13,141.33,238.68,137Z" transform="translate(-36.32 -43.67)"/><path class="cls-3" d="M493.44,269A52.43,52.43,0,1,1,441,216.61,52.43,52.43,0,0,1,493.44,269Z" transform="translate(-36.32 -43.67)"/><path class="cls-3" d="M474,268.69a33,33,0,1,1-33-33A33,33,0,0,1,474,268.69Z" transform="translate(-36.32 -43.67)"/><path class="cls-4" d="M481.06,251.57a17.52,17.52,0,1,1-17.51-17.51A17.51,17.51,0,0,1,481.06,251.57Z" transform="translate(-36.32 -43.67)"/><path class="cls-3" d="M226.6,269a52.43,52.43,0,1,1-52.43-52.42A52.43,52.43,0,0,1,226.6,269Z" transform="translate(-36.32 -43.67)"/><path class="cls-3" d="M207.19,268.69a33,33,0,1,1-33-33A33,33,0,0,1,207.19,268.69Z" transform="translate(-36.32 -43.67)"/><path class="cls-2" d="M214.22,251.57a17.52,17.52,0,1,1-17.51-17.51A17.51,17.51,0,0,1,214.22,251.57Z" transform="translate(-36.32 -43.67)"/><path class="cls-2" d="M810.44,170.84c20.2,20.2,30.15,44.95,30.15,74,0,28.73-9.67,53.2-29.59,73.12s-43.81,29.87-72.26,29.87c-29.59,0-54.34-10.25-74-30.73s-29.3-44.95-29.3-73.12c0-11.09,2-28.16,7.68-39.26,18.49-37,86.77-29.58,74.82,16.51-14.51-17.36-45.8-9.4-44.38,27.88.85,19.91,8.54,35.56,23.33,47.51a63.46,63.46,0,0,0,41.82,15.08c17.64,0,32.72-6.55,45.24-19.35,12.51-13.09,18.77-28.74,18.77-47.79q0-28.17-18.77-47.8c-12.81-12.8-27.88-19.35-46.09-19.35a65.88,65.88,0,0,0-22.76,3.7c-13.66-12.52-39-13.37-57.19-2a104.35,104.35,0,0,1,28.74-24.75,101,101,0,0,1,51.78-13.94C766.34,140.4,790.52,150.64,810.44,170.84Z" transform="translate(-36.32 -43.67)"/><path class="cls-2" d="M871.6,343.53c12.23,13.65,40.4,23.33,59.17,22.76,35-1.42,42.39-21.05,42.39-42.39-43,42.68-115.5,13.37-115.5-57.75,0-45.81,34.71-75.4,72-74,36.41,1.42,42.39,33.57,35.56,46.08C958.65,228.88,945,226,934.48,226c-52.64,0-53.78,83.65,0,83.65,30.15,0,38.68-26.75,38.68-53.21v-60.6h37V326.75c0,44.95-25.89,73.68-75.39,73.68C897.2,400.43,860.22,382.79,871.6,343.53Z" transform="translate(-36.32 -43.67)"/><path class="cls-2" d="M1148.41,327c-43,42.68-115.5,13.66-115.5-57.75,0-45.81,34.7-78.53,72-77.1,36.41,1.42,42.38,33.85,35.56,46.08-6.26-9.38-19.92-11.94-30.73-11.94-52.63,0-53.77,86.77,0,86.77,30.16,0,38.69-30.16,38.69-56.62v-60.6h37V343.25h-37Z" transform="translate(-36.32 -43.67)"/><path class="cls-2" d="M1265.06,144.09V197h33c0,14.8-4.55,30.73-25,30.73h-8v80.51c0,11.95,21.62,9.39,27,.57,14.51,37.56-62.87,52.06-62.87,4V227.74H1211V197h18.21v-23.9C1229.21,152.06,1246.56,143.81,1265.06,144.09Z" transform="translate(-36.32 -43.67)"/></svg>