<svg id="Layer_1" data-name="Layer 1" xmlns="http://www.w3.org/2000/svg" viewBox="0 0 886.67 347.98"><defs><style>.cls-1{fill:#fff;}</style></defs><title>solo text White</title><path class="cls-1" d="M290.81,366.75c27,27,40.35,60.15,40.35,99,0,38.46-12.94,71.2-39.59,97.85s-58.64,40-96.71,40c-39.59,0-72.71-13.7-99-41.11s-39.22-60.16-39.22-97.85c0-14.85,2.67-37.69,10.28-52.54,24.75-49.49,116.12-39.59,100.13,22.08-19.41-23.22-61.29-12.56-59.39,37.32C108.82,498.09,119.1,519,138.9,535a84.94,84.94,0,0,0,56,20.17c23.61,0,43.79-8.76,60.54-25.89,16.75-17.51,25.13-38.45,25.13-63.95q0-37.71-25.13-64c-17.14-17.13-37.31-25.89-61.68-25.89a88.33,88.33,0,0,0-30.46,4.95C145,363.7,111.1,362.56,86.74,377.79a139.86,139.86,0,0,1,38.45-33.13A135.28,135.28,0,0,1,194.48,326C231.79,326,264.15,339.72,290.81,366.75Z" transform="translate(-56.66 -326.01)"/><path class="cls-1" d="M372.65,597.84c16.37,18.27,54.06,31.22,79.19,30.46,46.83-1.91,56.72-28.17,56.72-56.73C451.08,628.68,354,589.47,354,494.29c0-61.3,46.44-100.9,96.32-99,48.73,1.9,56.73,44.92,47.59,61.68-8.76-12.57-27-16.37-41.12-16.37-70.43,0-72,111.93,0,111.93,40.36,0,51.77-35.79,51.77-71.2V400.25h49.5V575.38c0,60.16-34.65,98.61-100.89,98.61C406.92,674,357.42,650.38,372.65,597.84Z" transform="translate(-56.66 -326.01)"/><path class="cls-1" d="M743.08,575.76C685.6,632.87,588.51,594,588.51,498.47c0-61.29,46.45-105.07,96.32-103.17,48.74,1.9,56.73,45.31,47.59,61.68-8.37-12.57-26.64-16-41.11-16-70.44,0-72,116.12,0,116.12,40.35,0,51.77-40.36,51.77-75.77V400.25h49.5V597.46h-49.5Z" transform="translate(-56.66 -326.01)"/><path class="cls-1" d="M899.17,331v70.81h44.17c0,19.8-6.09,41.12-33.51,41.12H899.17V550.63c0,16,28.94,12.57,36.17.77,19.42,50.25-84.13,69.67-84.13,5.33V442.89H826.84V401.77h24.37v-32C851.21,341.62,874.43,330.58,899.17,331Z" transform="translate(-56.66 -326.01)"/></svg>