<?xml version="1.0" encoding="UTF-8" standalone="no"?>
<svg
   xmlns:dc="http://purl.org/dc/elements/1.1/"
   xmlns:cc="http://creativecommons.org/ns#"
   xmlns:rdf="http://www.w3.org/1999/02/22-rdf-syntax-ns#"
   xmlns:svg="http://www.w3.org/2000/svg"
   xmlns="http://www.w3.org/2000/svg"
   viewBox="0 0 1827.8933 596.06"
   height="596.06"
   width="1827.8933"
   xml:space="preserve"
   id="svg2"
   version="1.1"><metadata
     id="metadata8"><rdf:RDF><cc:Work
         rdf:about=""><dc:format>image/svg+xml</dc:format><dc:type
           rdf:resource="http://purl.org/dc/dcmitype/StillImage" /></cc:Work></rdf:RDF></metadata><defs
     id="defs6"><clipPath
       id="clipPath18"
       clipPathUnits="userSpaceOnUse"><path
         id="path16"
         d="M 0,447.045 H 1370.921 V 0 H 0 Z" /></clipPath></defs><g
     transform="matrix(1.3333333,0,0,-1.3333333,0,596.06)"
     id="g10"><g
       id="g12"><g
         clip-path="url(#clipPath18)"
         id="g14"><g
           transform="translate(444.5167,310.7614)"
           id="g20"><path
             id="path22"
             style="fill:#006bb3;fill-opacity:1;fill-rule:nonzero;stroke:none"
             d="M 0,0 -0.003,0.14 C -0.496,0.113 -0.971,0.065 -1.467,0.035 c -0.037,0 -0.077,0.006 -0.112,0.006 -32.424,0 -62.086,-11.951 -84.89,-31.64 -8.939,-7.005 -17.172,-14.978 -24.952,-23.624 -20.609,-27.792 -30.863,-47.215 -49.748,-75.269 -23.218,-34.504 -60.114,-75.957 -102.797,-80.139 -1.128,-0.199 -2.24,-0.455 -3.383,-0.603 -10.026,-1.076 -16.508,-0.083 -17.32,0.057 l -0.09,-0.497 c -42.061,3.401 -75.26,38.698 -75.26,81.619 0,45.167 36.747,81.91 81.913,81.91 45.166,0 81.911,-36.743 81.911,-81.913 0,-6.313 -0.799,-12.434 -2.156,-18.341 10.64,11.804 19.019,23.116 23.903,29.708 6.491,8.768 13.37,18.9 19.952,29.032 -17.031,52.012 -65.982,89.7 -123.61,89.7 -71.733,0 -130.094,-58.359 -130.094,-130.096 0,-71.734 58.361,-130.094 130.094,-130.094 7.301,0 14.447,0.638 21.426,1.795 27.587,4.007 66.583,17.763 102.876,59.188 47.522,54.065 52.257,71.761 81.19,111.545 l 1.55,1.91 c 3.94,6.884 7.192,9.331 12.884,14.782 16.786,13.731 34.944,21.154 57.769,22.756 44.628,-0.634 80.745,-37.111 80.745,-81.885 0,-45.164 -36.747,-81.907 -81.913,-81.907 -44.29,0 -80.456,35.342 -81.842,79.302 -9.6,-12.951 -21.919,-29.875 -36.745,-50.826 20.42,-45.157 65.887,-76.66 118.587,-76.66 71.734,0 130.093,58.36 130.093,130.091 C 128.514,-58.85 71.008,-0.854 0,0" /></g><g
           transform="translate(510.46,363.1637)"
           id="g24"><path
             id="path26"
             style="fill:#19436e;fill-opacity:1;fill-rule:nonzero;stroke:none"
             d="M 0,0 C 0,0 -75.981,96.369 -153.817,-9.267 -157.115,-13.741 -88.954,42.627 0,0" /></g><g
           transform="translate(238.6837,310.0788)"
           id="g28"><path
             id="path30"
             style="fill:#19436e;fill-opacity:1;fill-rule:nonzero;stroke:none"
             d="M 0,0 C -81.229,103.045 -154.035,4.263 -154.035,4.263 -66.515,49.757 3.442,-4.361 0,0" /></g><g
           transform="translate(493.4385,178.0114)"
           id="g32"><path
             id="path34"
             style="fill:#86c54d;fill-opacity:1;fill-rule:nonzero;stroke:none"
             d="m 0,0 c 0,-28.956 -23.472,-52.433 -52.429,-52.433 -28.957,0 -52.431,23.477 -52.431,52.433 0,28.956 23.474,52.428 52.431,52.428 C -23.472,52.428 0,28.956 0,0" /></g><g
           transform="translate(474.0259,178.3532)"
           id="g36"><path
             id="path38"
             style="fill:#19436e;fill-opacity:1;fill-rule:nonzero;stroke:none"
             d="m 0,0 c 0,-18.224 -14.764,-32.992 -32.989,-32.992 -18.225,0 -32.998,14.768 -32.998,32.992 0,18.225 14.773,32.994 32.998,32.994 C -14.764,32.994 0,18.225 0,0" /></g><g
           transform="translate(481.0606,195.4704)"
           id="g40"><path
             id="path42"
             style="fill:#ffffff;fill-opacity:1;fill-rule:nonzero;stroke:none"
             d="m 0,0 c 0,-9.669 -7.844,-17.51 -17.515,-17.51 -9.675,0 -17.514,7.841 -17.514,17.51 0,9.674 7.839,17.517 17.514,17.517 C -7.844,17.517 0,9.674 0,0" /></g><g
           transform="translate(226.6021,178.0114)"
           id="g44"><path
             id="path46"
             style="fill:#86c54d;fill-opacity:1;fill-rule:nonzero;stroke:none"
             d="m 0,0 c 0,-28.954 -23.473,-52.433 -52.431,-52.433 -28.958,0 -52.428,23.479 -52.428,52.433 0,28.957 23.47,52.428 52.428,52.428 C -23.473,52.428 0,28.957 0,0" /></g><g
           transform="translate(207.1905,178.3532)"
           id="g48"><path
             id="path50"
             style="fill:#19436e;fill-opacity:1;fill-rule:nonzero;stroke:none"
             d="m 0,0 c 0,-18.222 -14.767,-32.992 -32.995,-32.992 -18.222,0 -32.992,14.77 -32.992,32.992 0,18.225 14.77,32.994 32.992,32.994 C -14.767,32.994 0,18.225 0,0" /></g><g
           transform="translate(214.2198,195.4704)"
           id="g52"><path
             id="path54"
             style="fill:#ffffff;fill-opacity:1;fill-rule:nonzero;stroke:none"
             d="m 0,0 c 0,-9.669 -7.84,-17.51 -17.513,-17.51 -9.674,0 -17.512,7.841 -17.512,17.51 0,9.674 7.838,17.517 17.512,17.517 C -7.84,17.517 0,9.674 0,0" /></g><g
           transform="translate(810.438,276.2057)"
           id="g56"><path
             id="path58"
             style="fill:#19436e;fill-opacity:1;fill-rule:nonzero;stroke:none"
             d="m 0,0 c 20.197,-20.197 30.156,-44.952 30.156,-73.969 0,-28.735 -9.675,-53.201 -29.59,-73.118 -19.915,-19.916 -43.814,-29.872 -72.264,-29.872 -29.587,0 -54.338,10.243 -73.971,30.725 -19.632,20.483 -29.302,44.953 -29.302,73.119 0,11.097 1.99,28.164 7.681,39.26 18.493,36.987 86.774,29.588 74.823,-16.502 -14.508,17.357 -45.804,9.392 -44.382,-27.882 0.855,-19.911 8.537,-35.56 23.329,-47.512 11.952,-9.959 25.89,-15.076 41.822,-15.076 17.641,0 32.721,6.543 45.237,19.347 12.518,13.086 18.778,28.735 18.778,47.792 0,18.78 -6.26,34.712 -18.778,47.797 -12.804,12.804 -27.88,19.349 -46.087,19.349 -8.254,0 -15.649,-1.139 -22.763,-3.699 -13.654,12.519 -38.978,13.373 -57.185,1.99 7.966,9.958 17.641,18.207 28.735,24.753 16.217,9.389 33.287,13.939 51.779,13.939 C -44.101,30.441 -19.919,20.199 0,0" /></g><g
           transform="translate(871.5963,103.5133)"
           id="g60"><path
             id="path62"
             style="fill:#19436e;fill-opacity:1;fill-rule:nonzero;stroke:none"
             d="m 0,0 c 12.236,-13.653 40.4,-23.328 59.179,-22.759 34.994,1.424 42.388,21.051 42.388,42.392 -42.959,-42.68 -115.503,-13.374 -115.503,57.753 0,45.804 34.707,75.394 71.976,73.968 36.418,-1.419 42.392,-33.57 35.561,-46.087 -6.542,9.387 -20.197,12.23 -30.722,12.23 -52.635,0 -53.773,-83.643 0,-83.643 30.155,0 38.688,26.746 38.688,53.203 v 44.953 15.648 h 36.988 V 16.783 c 0,-44.949 -25.892,-73.684 -75.392,-73.684 C 25.607,-56.901 -11.377,-39.261 0,0" /></g><g
           transform="translate(1148.4131,120.0153)"
           id="g64"><path
             id="path66"
             style="fill:#19436e;fill-opacity:1;fill-rule:nonzero;stroke:none"
             d="m 0,0 c -42.959,-42.677 -115.506,-13.658 -115.506,57.753 0,45.804 34.707,78.523 71.979,77.099 36.416,-1.419 42.388,-33.857 35.562,-46.087 -6.262,9.387 -19.914,11.946 -30.724,11.946 -52.635,0 -53.774,-86.771 0,-86.771 C -8.533,13.94 0,44.098 0,70.555 v 44.953 15.648 H 36.988 V -16.218 l -36.988,0 z" /></g><g
           transform="translate(1265.0557,302.9499)"
           id="g68"><path
             id="path70"
             style="fill:#19436e;fill-opacity:1;fill-rule:nonzero;stroke:none"
             d="m 0,0 v -52.917 h 33.002 c 0,-14.794 -4.551,-30.725 -25.037,-30.725 H 0 v -80.514 c 0,-11.95 21.623,-9.391 27.027,-0.572 14.51,-37.552 -62.871,-52.062 -62.871,-3.983 v 85.069 h -18.211 v 30.725 h 18.211 v 23.898 C -35.844,-7.966 -18.492,0.284 0,0" /></g></g></g></g></svg>